<?xml version="1.0" encoding="utf-8"?>
<!-- Generator: Adobe Illustrator 23.0.4, SVG Export Plug-In . SVG Version: 6.00 Build 0)  -->
<svg version="1.1" id="Capa_1" xmlns="http://www.w3.org/2000/svg" xmlns:xlink="http://www.w3.org/1999/xlink" x="0px" y="0px"
	 viewBox="0 0 350.8 61.4" style="enable-background:new 0 0 350.8 61.4;" xml:space="preserve">
<style type="text/css">
	.st0{fill-rule:evenodd;clip-rule:evenodd;fill:#C4D600;}
	.st1{fill-rule:evenodd;clip-rule:evenodd;fill:#595B6B;}
	.st2{fill:none;stroke:#595B6B;stroke-miterlimit:3.864;}
	.st3{fill:#595B6B;}
</style>
<path class="st0" d="M172.4,10.2c11.3,0,20.5,9.2,20.5,20.5c0,11.3-9.2,20.5-20.5,20.5c-11.3,0-20.5-9.2-20.5-20.5
	C151.8,19.4,161,10.2,172.4,10.2 M172.4,14c-9.2,0-16.7,7.5-16.7,16.7s7.5,16.7,16.7,16.7s16.7-7.5,16.7-16.7
	C189.1,21.5,181.6,14,172.4,14"/>
<path class="st1" d="M262.2,40.9l-2.4-5.5l-5.5-13l-7.8,18.6h-1.7l8.6-20.2h1.8l8.6,20.2H262.2z M220.7,26.3c0-1.6-0.6-2.7-1.7-3.3
	c-1.1-0.7-2.7-1-4.7-1h-6.5v8.8h6.1c2.2,0,3.9-0.4,5.1-1.1C220.1,29,220.7,27.8,220.7,26.3 M222.3,26.2c0,1.6-0.5,2.9-1.6,3.8
	c-1.1,0.9-2.6,1.5-4.5,1.8l5.7,9.1H220l-5.5-8.9h-6.7v8.9h-1.6V20.8h8.2c1.1,0,2.2,0.1,3.2,0.3c1,0.2,1.8,0.5,2.5,0.9
	c0.7,0.4,1.3,1,1.7,1.7C222.1,24.4,222.3,25.2,222.3,26.2 M138.4,26.6c0-1.6-0.6-2.8-1.7-3.5c-1.1-0.7-2.6-1.1-4.6-1.1h-6.4v9.3h5.9
	C136.1,31.3,138.4,29.7,138.4,26.6 M140,26.5c0,2-0.8,3.5-2.3,4.5c-1.5,1-3.5,1.5-6.1,1.5h-5.9v8.4h-1.6V20.8h8.1
	c1.1,0,2.2,0.1,3.2,0.3c1,0.2,1.8,0.5,2.5,1c0.7,0.5,1.2,1.1,1.6,1.8C139.8,24.6,140,25.5,140,26.5 M97.7,40.9V23.6l-9,17.6
	l-8.9-17.6v17.3h-1.6V20.8h1.8l8.7,17.4l8.7-17.4h1.8v20.1H97.7z M40.7,40.9V20.8h13.9V22H42.3v7.6h7.5v1.2h-7.5v8.9h12.8v1.2
	C55.2,40.9,40.7,40.9,40.7,40.9z M10,22v18.9H8.3V22H0.7v-1.2h16.9V22H10z"/>
<line class="st2" x1="280.5" y1="0.5" x2="280.5" y2="61.2"/>
<g>
	<rect x="298.4" y="20.6" class="st3" width="0.8" height="8"/>
	<path class="st3" d="M302.2,22.1l2.9,5c0.1,0.2,0.2,0.2,0.3,0.2h0.1c0.1,0,0.2,0,0.3-0.2l2.8-5v6.6h0.7v-8h-0.5c-0.1,0-0.1,0-0.2,0
		c-0.1,0-0.1,0.1-0.2,0.1l-3.1,5.4c0,0,0,0,0,0.1c0,0,0,0,0-0.1l-3.1-5.4c0-0.1-0.1-0.1-0.2-0.1c0,0-0.1,0-0.2,0h-0.5v8h0.7V22.1z"
		/>
	<path class="st3" d="M315,25.3c0.4-0.1,0.7-0.3,0.9-0.5c0.3-0.2,0.4-0.5,0.6-0.8c0.1-0.3,0.2-0.6,0.2-1c0-0.8-0.2-1.4-0.7-1.8
		c-0.5-0.4-1.2-0.6-2.1-0.6h-2.1v8h0.8v-3.1h1.3C314.2,25.5,314.6,25.5,315,25.3z M314.7,24.7c-0.3,0.1-0.6,0.1-0.9,0.1h-1.3v-3.5
		h1.3c0.7,0,1.2,0.2,1.6,0.5c0.3,0.3,0.5,0.7,0.5,1.3c0,0.3,0,0.5-0.1,0.7c-0.1,0.2-0.2,0.4-0.4,0.6
		C315.2,24.5,314.9,24.6,314.7,24.7z"/>
	<path class="st3" d="M323.1,28.7c0.1,0,0.1,0,0.2-0.1c0.1,0,0.1-0.1,0.1-0.2l0.9-2.2h3.7l0.9,2.2c0,0.1,0.1,0.1,0.1,0.2
		c0.1,0,0.1,0.1,0.2,0.1h0.6l-3.3-8l0-0.1h-0.7l-3.2,7.9l-0.1,0.1v-0.7h-3.7v-7.3H318v8h4.5v0H323.1z M327.7,25.6h-3.1l1.5-3.8
		c0,0,0-0.1,0-0.1c0,0,0,0.1,0,0.1L327.7,25.6z"/>
	<path class="st3" d="M331.5,22.1l4.8,6.4c0.1,0.1,0.2,0.2,0.3,0.2h0.4v-8h-0.7v6.6l-4.8-6.4c0-0.1-0.1-0.1-0.1-0.1l0,0
		c0,0-0.1,0-0.2,0h-0.4v8h0.7V22.1z"/>
	<polygon class="st3" points="338.1,21.4 340.9,21.4 340.9,28.7 341.7,28.7 341.7,21.4 344.4,21.4 344.4,20.6 338.1,20.6 	"/>
	<polygon class="st3" points="350.4,21.3 350.4,20.6 345.5,20.6 345.5,28.7 350.4,28.7 350.4,27.9 346.3,27.9 346.3,24.9 
		349.7,24.9 349.7,24.2 346.3,24.2 346.3,21.3 	"/>
	<path class="st3" d="M303.9,39.1C303.9,39.1,303.8,39.1,303.9,39.1L303.9,39.1c-0.2,0.2-0.4,0.3-0.5,0.4c-0.1,0.1-0.3,0.2-0.5,0.3
		c-0.2,0.1-0.4,0.1-0.6,0.2c-0.2,0-0.5,0.1-0.7,0.1c-0.4,0-0.8-0.1-1.2-0.2c-0.4-0.2-0.7-0.4-0.9-0.7c-0.3-0.3-0.5-0.6-0.6-1.1
		c-0.2-0.4-0.2-0.9-0.2-1.4c0-0.5,0.1-1,0.2-1.4c0.2-0.4,0.4-0.8,0.6-1.1c0.3-0.3,0.6-0.5,1-0.7c0.4-0.2,0.8-0.2,1.3-0.2
		c0.2,0,0.5,0,0.7,0.1c0.2,0,0.4,0.1,0.5,0.1c0.1,0.1,0.3,0.1,0.4,0.2c0.1,0.1,0.2,0.1,0.3,0.2l0.2,0.1c0.1,0.1,0.1,0.1,0.2,0.1
		c0.1,0,0.2-0.1,0.2-0.1l0.2-0.3l-0.1-0.1c-0.2-0.2-0.4-0.3-0.5-0.4c-0.2-0.1-0.4-0.2-0.6-0.3c-0.2-0.1-0.4-0.1-0.7-0.2
		c-0.2,0-0.5-0.1-0.8-0.1c-0.6,0-1.1,0.1-1.6,0.3c-0.5,0.2-0.9,0.5-1.2,0.8c-0.3,0.4-0.6,0.8-0.8,1.3c-0.2,0.5-0.3,1.1-0.3,1.7
		c0,0.6,0.1,1.2,0.3,1.7c0.2,0.5,0.4,0.9,0.8,1.3c0.3,0.4,0.7,0.6,1.2,0.8c0.5,0.2,1,0.3,1.5,0.3c0.3,0,0.6,0,0.9-0.1
		c0.3-0.1,0.5-0.1,0.8-0.2c0.2-0.1,0.5-0.2,0.6-0.4c0.2-0.1,0.4-0.3,0.5-0.5l0.1-0.1l-0.3-0.3C304.1,39.1,304,39.1,303.9,39.1z"/>
	<path class="st3" d="M308.8,32.6h-0.7l-3.2,7.9l-0.1,0.2h0.6c0.1,0,0.1,0,0.2-0.1c0.1,0,0.1-0.1,0.1-0.2l0.9-2.2h3.7l0.9,2.2
		c0,0.1,0.1,0.1,0.1,0.2c0.1,0,0.1,0.1,0.2,0.1h0.6L308.8,32.6L308.8,32.6z M310,37.6h-3.1l1.5-3.8c0,0,0-0.1,0-0.1c0,0,0,0.1,0,0.1
		L310,37.6z"/>
	<path class="st3" d="M315.3,32.6h-2.1v8h0.8v-3.1h1.3c0.4,0,0.8-0.1,1.2-0.2c0.4-0.1,0.7-0.3,0.9-0.5c0.3-0.2,0.4-0.5,0.6-0.8
		c0.1-0.3,0.2-0.6,0.2-1c0-0.8-0.2-1.4-0.7-1.8C317,32.8,316.3,32.6,315.3,32.6z M317.4,35.1c0,0.3,0,0.5-0.1,0.7
		c-0.1,0.2-0.2,0.4-0.4,0.6c-0.2,0.2-0.4,0.3-0.6,0.4c-0.3,0.1-0.6,0.1-0.9,0.1H314v-3.5h1.3c0.7,0,1.2,0.2,1.6,0.5
		C317.2,34.1,317.4,34.5,317.4,35.1z"/>
	<rect x="319.8" y="32.6" class="st3" width="0.8" height="8"/>
	<path class="st3" d="M331.4,32.6h-0.7l-3.2,7.9l-0.1,0.1v-0.7h-3.7v-7.3h-0.8v8h4.5h0h0.6c0.1,0,0.2,0,0.2-0.1
		c0.1,0,0.1-0.1,0.1-0.2l0.9-2.2h3.7l0.9,2.2c0,0.1,0.1,0.1,0.1,0.2c0.1,0,0.1,0.1,0.2,0.1h0.6L331.4,32.6L331.4,32.6z M332.6,37.6
		h-3.1l1.5-3.8c0,0,0-0.1,0-0.1c0,0,0,0.1,0,0.1L332.6,37.6z"/>
	<path class="st3" d="M338.6,37c0.2,0,0.5-0.1,0.7-0.2c0.3-0.1,0.5-0.3,0.7-0.5c0.2-0.2,0.4-0.4,0.5-0.7c0.1-0.3,0.2-0.6,0.2-0.9
		c0-0.7-0.2-1.3-0.7-1.6c-0.5-0.4-1.2-0.5-2.1-0.5h-2.1v8h0.8v-3.5h0.9c0.2,0,0.2,0,0.3,0c0.1,0,0.1,0.1,0.2,0.1l2.5,3.2
		c0.1,0.1,0.1,0.1,0.2,0.1c0.1,0,0.1,0,0.2,0h0.7L338.6,37C338.6,37.1,338.6,37,338.6,37z M339.7,35.5c-0.1,0.2-0.2,0.4-0.4,0.5
		c-0.2,0.1-0.4,0.3-0.6,0.3c-0.3,0.1-0.6,0.1-0.9,0.1h-1.2v-3.1h1.3c0.7,0,1.2,0.1,1.5,0.4c0.3,0.2,0.5,0.6,0.5,1.1
		C339.9,35.1,339.8,35.3,339.7,35.5z"/>
</g>
</svg>
